<?xml version="1.0" encoding="utf-8"?>
<svg version="1.1" id="Layer_1" xmlns="http://www.w3.org/2000/svg" xmlns:xlink="http://www.w3.org/1999/xlink" x="0px" y="0px"
	 viewBox="0 0 3375 1167" style="enable-background:new 0 0 3375 1167;" xml:space="preserve">
<style type="text/css">
	.st0{font-family:'TimesNewRomanPSMT';}
	.st1{font-size:1244.8154px;}
	.st2{fill:#FFFFFF;}
</style>
<text transform="matrix(0.8561 0 0 1 0 843.5098)" class="st0 st1">REALS</text>
<path d="M479.64,919.36"/>
<polygon class="st2" points="68.25,862.46 13.75,872.98 13.75,815.45 96.1,806.85 "/>
<polygon class="st2" points="312.07,859.97 208.79,876.86 208.79,784.49 364.83,770.69 "/>
<path d="M115.6,756.64c-23.68,65.86-53.14,66.64-71.52,129.92c-8.49,29.23-28.33,97.77,10.84,151.25
	c48.01,65.56,169.05,84.9,247.06,54.29c49.65-19.48,54.66-48.53,110.52-58.17c61.3-10.58,113.41,14.34,123.53,19.39
	c43.78,21.86,35.08,46.2,67.18,56.23c51.39,16.06,83.47-37.43,143.03-25.21c44.11,9.05,44.51,42.06,88.85,46.54
	c47.45,4.79,90.01-28.66,95.35-32.96c34.74-28.01,38.45-60.04,78.02-71.75c14.34-4.24,26.04-3.64,26.01-3.88
	c-0.08-0.6-76.81-2.09-162.54,21.33c-26.21,7.16-31.42,10.68-45.51,9.7c-44.97-3.16-54.12-43.43-101.86-56.23
	c-38.87-10.43-45.69,12.81-88.85,5.82c-57.68-9.35-57.85-52.86-123.53-73.69c-34.56-10.96-66-8.89-112.69-5.82
	c-37.95,2.5-88.23,25.27-108.36,11.63c-7.98-5.41-14.9-13.05-14.9-13.05c-4.51-4.98-8.67-10.81-13.28-19.91
	c-5.32-10.53-7.01-17.09-13-36.84c-5.83-19.23-4.44-13.79-10.84-34.9c-9.41-31.09-10.24-35.61-10.84-40.72
	c-0.67-5.74-0.62-8.64-2.17-23.27c-0.78-7.39-1.17-10.22-2.17-19.39c0,0-1.04-9.58-2.17-21.33c-3-31.26-1.1-51.59-4.33-65.93
	c-8.05-35.7-55.98-69.94-78.02-62.05C113.13,607.05,147.18,668.82,115.6,756.64z"/>
</svg>
